<svg width="17" height="17" viewBox="0 0 17 17" fill="none" xmlns="http://www.w3.org/2000/svg">
<path d="M6.89665 8.42861C6.60727 8.14598 6.36528 7.91419 6.12828 7.67742C4.31322 5.86415 2.49828 4.05075 0.683461 2.23723C0.426215 1.98073 0.271557 1.6934 0.318139 1.32081C0.333376 1.14465 0.39769 0.97628 0.503783 0.834823C0.609877 0.693364 0.753499 0.584478 0.918351 0.520524C1.27603 0.369974 1.6208 0.420977 1.93142 0.65757C2.00375 0.716928 2.07204 0.781052 2.13582 0.849512C4.38052 3.09337 6.625 5.33744 8.86927 7.58172C9.43558 8.14801 9.43674 8.68015 8.87315 9.24369C6.60671 11.5099 4.34061 13.7765 2.07484 16.0434C1.77712 16.3416 1.44161 16.4941 1.02093 16.3759C0.859943 16.3337 0.712146 16.2518 0.591143 16.1375C0.47014 16.0233 0.379823 15.8804 0.328506 15.7221C0.277187 15.5638 0.266518 15.3952 0.29748 15.2317C0.328442 15.0682 0.40004 14.9151 0.505683 14.7865C0.570693 14.7087 0.640143 14.6348 0.713688 14.5651C2.69317 12.5854 4.67317 10.6062 6.6537 8.62753C6.71885 8.56246 6.79654 8.50994 6.89665 8.42861Z" fill="#6A72E5"/>
<path d="M13.9202 8.43582C13.7576 8.29425 13.6645 8.22241 13.582 8.13999C11.6065 6.16693 9.63145 4.19353 7.6567 2.21979C7.36846 1.9322 7.20188 1.61261 7.2988 1.19342C7.33631 1.02541 7.4167 0.869976 7.53214 0.742273C7.64758 0.61457 7.79413 0.51895 7.95752 0.464727C8.1209 0.410505 8.29555 0.399532 8.46444 0.432877C8.63333 0.466222 8.79069 0.542746 8.92121 0.654995C8.98631 0.710566 9.04544 0.773245 9.10609 0.833879C11.3564 3.08366 13.6066 5.33355 15.8568 7.58353C16.4199 8.14659 16.4214 8.68077 15.8614 9.24074C13.5893 11.5127 11.3174 13.7849 9.04593 16.0575C8.74597 16.3579 8.40509 16.4945 7.98757 16.3702C7.8297 16.3247 7.68559 16.2407 7.56818 16.1258C7.45077 16.0109 7.36373 15.8686 7.31486 15.7118C7.266 15.5549 7.25685 15.3884 7.28822 15.2271C7.3196 15.0658 7.39052 14.9149 7.49463 14.7878C7.56508 14.7044 7.63996 14.6249 7.71894 14.5495C9.69311 12.5752 11.668 10.6016 13.6437 8.62883C13.7308 8.55752 13.8232 8.49299 13.9202 8.43582Z" fill="#6A72E5"/>
</svg>
