<svg width="23" height="13" viewBox="0 0 23 13" fill="none" xmlns="http://www.w3.org/2000/svg">
<path d="M22.853 4.08532C22.8096 4.25826 22.7561 4.42852 22.6929 4.59521C21.696 6.8442 20.6962 9.09189 19.6935 11.3383C19.5273 11.7113 19.2757 11.8489 18.9643 11.741C18.8371 11.6995 18.7305 11.611 18.6666 11.4935C18.6026 11.376 18.586 11.2385 18.6202 11.1091C18.6519 10.9965 18.6928 10.8867 18.7425 10.7808C19.5323 9.00383 20.3229 7.22719 21.1142 5.45088C21.1507 5.36891 21.1823 5.28479 21.2367 5.15123L20.9368 5.26634C14.4042 7.77398 7.8714 10.2811 1.33839 12.7878C1.2158 12.837 1.08794 12.8719 0.957343 12.8919C0.840353 12.9072 0.721615 12.8822 0.62075 12.821C0.519884 12.7598 0.442928 12.666 0.402596 12.5551C0.35939 12.4454 0.354335 12.3243 0.388242 12.2114C0.422148 12.0984 0.493048 12.0002 0.589542 11.9324C0.700118 11.86 0.818478 11.8003 0.942393 11.7543C7.46708 9.24777 13.9922 6.74243 20.5178 4.23828L20.838 4.11536C20.7068 4.05192 20.6266 4.01051 20.5444 3.97382C18.7329 3.16565 16.9212 2.3577 15.1095 1.54997C14.7515 1.39021 14.6069 1.14039 14.6948 0.842451C14.7131 0.774686 14.7449 0.711285 14.7881 0.655996C14.8314 0.600706 14.8853 0.55465 14.9467 0.520552C15.008 0.486453 15.0756 0.465004 15.1454 0.457471C15.2152 0.449938 15.2858 0.456473 15.353 0.476693C15.4427 0.503661 15.5304 0.53689 15.6154 0.576132C17.8632 1.5756 20.1104 2.57645 22.357 3.5787C22.4942 3.65092 22.6262 3.73247 22.7522 3.82278L22.853 4.08532Z" fill="#FAFAFA"/>
</svg>
