<svg width="29" height="17" viewBox="0 0 29 17" fill="none" xmlns="http://www.w3.org/2000/svg">
<path d="M28.5957 5.19495C28.5414 5.41117 28.4746 5.62403 28.3954 5.83244C27.1491 8.64422 25.8991 11.4544 24.6455 14.2629C24.4378 14.7292 24.1231 14.9013 23.7338 14.7664C23.5747 14.7146 23.4416 14.6038 23.3616 14.457C23.2816 14.3101 23.2608 14.1381 23.3036 13.9764C23.3433 13.8356 23.3944 13.6983 23.4566 13.5659C24.444 11.3443 25.4324 9.12305 26.4217 6.90223C26.4673 6.79975 26.5069 6.69457 26.5749 6.5276L26.2 6.67151C18.0326 9.80667 9.86502 12.9412 1.69718 16.0751C1.54391 16.1367 1.38405 16.1803 1.22078 16.2053C1.07451 16.2245 0.926058 16.1932 0.799952 16.1167C0.673846 16.0401 0.577631 15.9228 0.527207 15.7842C0.473189 15.647 0.466869 15.4957 0.50926 15.3545C0.551652 15.2133 0.640293 15.0904 0.760934 15.0057C0.899182 14.9152 1.04716 14.8405 1.20208 14.783C9.35953 11.6493 17.5175 8.51698 25.6761 5.38619L26.0765 5.23251C25.9124 5.15319 25.8122 5.10142 25.7093 5.05555C23.4445 4.04514 21.1795 3.03501 18.9144 2.02515C18.4668 1.82541 18.286 1.51307 18.3959 1.14058C18.4189 1.05585 18.4585 0.976588 18.5126 0.907462C18.5667 0.838338 18.6341 0.780756 18.7108 0.738125C18.7875 0.695494 18.872 0.668677 18.9593 0.659258C19.0466 0.64984 19.1348 0.658011 19.2189 0.68329C19.331 0.717008 19.4406 0.758552 19.5469 0.807613C22.3572 2.05719 25.1668 3.3085 27.9756 4.56156C28.1471 4.65185 28.3122 4.7538 28.4697 4.86671L28.5957 5.19495Z" fill="#6A72E5"/>
</svg>
