<svg width="40" height="41" viewBox="0 0 40 41" fill="none" xmlns="http://www.w3.org/2000/svg">
<path d="M19.7029 40.1758C8.88682 40.1659 0.150239 31.3788 0.161143 20.5212C0.171969 9.74072 8.93791 0.97915 19.7154 0.976685C30.5338 0.974211 39.3131 9.78198 39.281 20.6058C39.249 31.442 30.5016 40.1857 19.7029 40.1758ZM5.83293 31.9991C7.35772 26.8095 10.6681 23.4062 15.7624 21.7225C11.2257 18.9385 10.7334 13.1847 13.7427 9.72427C16.7326 6.28624 21.8322 6.01036 25.1173 9.11838C26.7243 10.6388 27.5838 12.5284 27.593 14.7357C27.6056 17.7618 26.2234 20.0635 23.6669 21.7137C28.8181 23.403 32.0924 26.8409 33.6048 31.9897C38.8759 25.9118 39.6315 15.3705 32.7275 8.10739C25.7751 0.793539 14.2784 0.61939 7.05204 7.774C-0.0539539 14.8095 0.321731 25.5268 5.83293 31.9991ZM19.7378 22.7268C19.0518 22.7878 18.3576 22.8006 17.6812 22.9174C12.3547 23.8372 8.3372 27.7446 7.224 33.0457C7.18447 33.1817 7.18723 33.3265 7.23193 33.461C7.27663 33.5954 7.36114 33.713 7.47426 33.7983C10.5554 36.6052 14.1517 38.2385 18.3133 38.5488C23.5489 38.9393 28.0914 37.2985 31.986 33.7918C32.0974 33.7033 32.1793 33.5832 32.2211 33.4472C32.2628 33.3112 32.2624 33.1658 32.2198 33.0301C30.9658 26.9981 25.8463 22.7844 19.7378 22.7268ZM13.4046 14.8465C13.4072 16.0949 13.7795 17.3145 14.4744 18.3515C15.1693 19.3886 16.1557 20.1966 17.3093 20.6738C18.4628 21.1509 19.7319 21.2758 20.9563 21.0326C22.1807 20.7894 23.3057 20.1891 24.1894 19.3074C25.0731 18.4256 25.6759 17.302 25.9218 16.0781C26.1677 14.8542 26.0456 13.5849 25.571 12.4303C25.0964 11.2757 24.2906 10.2874 23.2551 9.59025C22.2195 8.89305 21.0008 8.51811 19.7524 8.51271C18.9184 8.50703 18.0916 8.66687 17.3198 8.98299C16.548 9.29911 15.8465 9.76521 15.2561 10.3543C14.6657 10.9434 14.1981 11.6438 13.8803 12.4149C13.5624 13.186 13.4008 14.0125 13.4046 14.8465Z" fill="#7C7B7B"/>
</svg>
