<svg width="21" height="18" viewBox="0 0 21 18" fill="none" xmlns="http://www.w3.org/2000/svg">
<path d="M20.043 6.55495C19.9723 6.93078 19.9213 7.31167 19.8271 7.68149C19.5458 8.78582 18.9829 9.74683 18.2867 10.6364C17.4436 11.7137 16.464 12.6583 15.4382 13.5553C13.9281 14.8757 12.4081 16.1846 10.8908 17.4966C10.3545 17.9603 9.75824 17.9801 9.23272 17.5237C7.3938 15.9266 5.55024 14.3344 3.7338 12.7119C2.79534 11.8737 1.9493 10.9415 1.25725 9.88023C0.297579 8.40852 -0.146665 6.81552 0.11873 5.054C0.397048 3.2067 1.26556 1.73361 2.88283 0.758766C3.88216 0.156397 4.98154 -0.0676744 6.14064 0.0460303C7.73499 0.202434 8.94796 1.02431 9.9141 2.26167C9.95003 2.30769 9.98651 2.35329 10.044 2.42595C10.1162 2.33309 10.1801 2.24823 10.2468 2.16564C11.1276 1.07489 12.2142 0.307593 13.6219 0.0890185C15.1026 -0.140908 16.4715 0.176257 17.6784 1.07325C19.012 2.06442 19.7311 3.4262 19.969 5.05818C19.9886 5.19256 20.0181 5.32549 20.043 5.4591V6.55495ZM10.0309 16.6691C10.0764 16.6336 10.1024 16.6151 10.1264 16.5944C11.6096 15.3124 13.0982 14.0365 14.5739 12.746C15.6389 11.8146 16.664 10.8413 17.5181 9.70385C18.4514 8.46086 18.9994 7.09479 18.8382 5.50601C18.6958 4.1022 18.1389 2.92035 17.0081 2.03639C15.6471 0.972511 13.5955 0.917051 12.1952 1.92118C11.6073 2.33625 11.1162 2.87381 10.7559 3.49684C10.4033 4.11255 9.66382 4.11928 9.32848 3.48905C9.21887 3.29651 9.09184 3.11441 8.949 2.94505C8.18518 1.98772 7.24725 1.3176 5.98874 1.21951C4.5912 1.11058 3.38827 1.55882 2.46043 2.61365C1.3391 3.88844 1.03482 5.40683 1.3214 7.05029C1.53606 8.28131 2.19971 9.29308 2.98552 10.2308C3.71553 11.1019 4.53273 11.8878 5.38707 12.6341C6.92716 13.9795 8.47407 15.3171 10.0309 16.6691Z" fill="#7C7B7B"/>
</svg>
