<svg width="25" height="23" viewBox="0 0 25 23" fill="none" xmlns="http://www.w3.org/2000/svg">
<path d="M0.488898 13.8427C0.489178 12.6554 0.473971 11.4679 0.49296 10.2809C0.483238 9.55076 0.646967 8.82876 0.970675 8.17424C1.29438 7.51972 1.76882 6.95139 2.35499 6.51598C4.47019 4.91146 6.61397 3.34372 8.76882 1.79259C9.59727 1.19722 10.5935 0.880631 11.6137 0.888574C12.6339 0.896516 13.6251 1.22857 14.4442 1.83677C16.5022 3.33186 18.5464 4.84609 20.5949 6.35429C20.6941 6.41432 20.7796 6.49446 20.8459 6.58956C20.9122 6.68466 20.9578 6.7926 20.9798 6.90642C21.0018 7.02023 20.9997 7.1374 20.9736 7.25035C20.9475 7.3633 20.8981 7.46954 20.8284 7.56219C20.7587 7.65485 20.6704 7.73186 20.5692 7.78828C20.4679 7.8447 20.3559 7.87927 20.2405 7.88974C20.125 7.90022 20.0087 7.88638 19.8989 7.84911C19.7891 7.81184 19.6884 7.75198 19.6032 7.67338C17.6353 6.22787 15.6691 4.78001 13.7047 3.32981C13.0761 2.82076 12.2899 2.54628 11.4811 2.55345C10.8024 2.5721 10.1465 2.80241 9.60511 3.21217C7.55485 4.71815 5.50589 6.22586 3.45821 7.73535C3.03829 8.03457 2.69789 8.43192 2.46664 8.89278C2.2354 9.35364 2.12033 9.86407 2.13145 10.3796C2.11999 12.7028 2.11934 15.0261 2.12951 17.3495C2.1285 17.7774 2.21202 18.2014 2.37525 18.597C2.53849 18.9926 2.77824 19.3521 3.08074 19.6548C3.38324 19.9575 3.74254 20.1975 4.13802 20.361C4.53351 20.5246 4.95739 20.6084 5.38534 20.6077C7.39308 20.6144 9.40085 20.6098 11.4086 20.6091C11.5807 20.5963 11.7525 20.6384 11.8991 20.7294C12.0457 20.8204 12.1597 20.9556 12.2246 21.1156C12.2905 21.2561 12.313 21.413 12.2893 21.5664C12.2656 21.7198 12.1967 21.8626 12.0914 21.9767C12.0067 22.0733 11.9008 22.1491 11.782 22.1982C11.6633 22.2474 11.5348 22.2685 11.4065 22.26C10.6291 22.2574 9.85159 22.2607 9.07413 22.259C7.74996 22.2561 6.4249 22.281 5.10186 22.2403C4.03194 22.186 3.01002 21.7794 2.19541 21.0836C1.38081 20.3878 0.819287 19.4421 0.5984 18.3938C0.531746 18.0509 0.496618 17.7026 0.493445 17.3532C0.48076 16.1832 0.488625 15.0129 0.488898 13.8427Z" fill="#FAFAFA"/>
<path d="M18.018 22.2578C16.7364 22.2574 15.4838 21.876 14.4195 21.162C13.3552 20.4481 12.5271 19.4338 12.0406 18.2482C11.554 17.0625 11.4309 15.7589 11.6869 14.5032C11.9429 13.2474 12.5665 12.0961 13.4784 11.1955C14.3902 10.2949 15.5493 9.68579 16.8081 9.44547C18.067 9.20514 19.3689 9.3445 20.5484 9.84581C21.7279 10.3471 22.7317 11.1878 23.4323 12.2609C24.1329 13.3341 24.4987 14.5913 24.4831 15.8728C24.4645 17.5743 23.7748 19.1997 22.5641 20.3954C21.3534 21.5911 19.7196 22.2604 18.018 22.2578ZM18.0148 20.6091C18.967 20.6099 19.898 20.3284 20.6902 19.8002C21.4825 19.2721 22.1003 18.5209 22.4658 17.6417C22.8312 16.7624 22.9278 15.7946 22.7433 14.8605C22.5589 13.9264 22.1016 13.0679 21.4294 12.3936C20.7572 11.7193 19.9001 11.2593 18.9666 11.072C18.0331 10.8846 17.0649 10.9782 16.1845 11.3408C15.3042 11.7035 14.5511 12.3191 14.0204 13.1096C13.4898 13.9002 13.2054 14.8304 13.2033 15.7825C13.2036 17.0599 13.7101 18.2851 14.612 19.1898C15.5138 20.0944 16.7374 20.6048 18.0148 20.6091Z" fill="#FAFAFA"/>
<path d="M18.8425 15.1804C19.3472 15.1804 19.8159 15.1746 20.2844 15.1822C20.465 15.1804 20.6414 15.2366 20.7876 15.3427C20.9337 15.4487 21.042 15.5989 21.0963 15.7711C21.1528 15.9341 21.1528 16.1113 21.0962 16.2743C21.0396 16.4372 20.9297 16.5763 20.7844 16.6691C20.5991 16.7693 20.3932 16.8251 20.1827 16.8323C19.7492 16.8563 19.3134 16.8396 18.8419 16.8396C18.8419 17.3469 18.8513 17.8389 18.8395 18.3305C18.835 18.4738 18.7928 18.6134 18.7171 18.7351C18.6414 18.8569 18.5349 18.9565 18.4083 19.024C18.2817 19.0914 18.1396 19.1242 17.9963 19.119C17.853 19.1139 17.7136 19.071 17.5922 18.9948C17.4698 18.9234 17.3689 18.8202 17.3003 18.6962C17.2317 18.5722 17.1979 18.4319 17.2025 18.2903C17.2065 17.8148 17.2036 17.3393 17.2036 16.8395C16.7232 16.8395 16.2725 16.8439 15.8219 16.8382C15.6374 16.8514 15.4534 16.8046 15.2976 16.7047C15.1418 16.6049 15.0225 16.4573 14.9574 16.2841C14.9129 16.1565 14.9002 16.0199 14.9205 15.8863C14.9408 15.7527 14.9935 15.6261 15.0739 15.5175C15.1543 15.4088 15.26 15.3215 15.3818 15.2631C15.5037 15.2046 15.638 15.1768 15.773 15.1821C16.2402 15.1731 16.7077 15.1804 17.2037 15.1804C17.2037 14.6726 17.1995 14.1886 17.2051 13.7049C17.2058 13.5114 17.2766 13.3247 17.4044 13.1794C17.5321 13.0341 17.7082 12.94 17.9 12.9146C18.1045 12.8816 18.3138 12.9279 18.4852 13.0441C18.6566 13.1603 18.7771 13.3376 18.8221 13.5397C18.8474 13.7514 18.854 13.9648 18.8418 14.1776C18.8442 14.5004 18.8425 14.8232 18.8425 15.1804Z" fill="#FAFAFA"/>
</svg>
