<svg width="21" height="17" viewBox="0 0 21 17" fill="none" xmlns="http://www.w3.org/2000/svg">
<path d="M0.923828 4.23054C1.06772 3.87823 1.32909 3.75759 1.70811 3.75811C7.30515 3.76575 12.9022 3.76751 18.4992 3.76338H18.78C18.7069 3.68678 18.6619 3.63762 18.6148 3.59057C17.7866 2.76359 16.9586 1.93644 16.1308 1.10914C15.7711 0.747562 15.8964 0.188936 16.3661 0.0465999C16.6283 -0.0328418 16.8465 0.0523057 17.0375 0.243912C17.8498 1.05911 18.6642 1.87233 19.4805 2.68357C19.8579 3.0602 20.2393 3.43301 20.6098 3.8163C20.7294 3.94003 20.82 4.09167 20.9238 4.23054V4.54245C20.8154 4.68593 20.7219 4.84425 20.5962 4.97058C19.4174 6.15491 18.2317 7.3324 17.0518 8.5156C16.8619 8.70605 16.6489 8.80304 16.3846 8.73284C16.2805 8.70539 16.1853 8.65136 16.1084 8.57605C16.0315 8.50073 15.9754 8.40672 15.9458 8.30322C15.9162 8.19973 15.9139 8.09031 15.9393 7.98568C15.9647 7.88106 16.0168 7.78483 16.0906 7.70643C16.2706 7.5102 16.4657 7.32774 16.6544 7.1394C17.3078 6.4871 17.9612 5.83482 18.6147 5.18256C18.6596 5.1377 18.7021 5.09047 18.7786 5.00961H18.519C12.9156 5.00961 7.31227 5.01135 1.70891 5.01482C1.33003 5.01533 1.06966 4.89216 0.923828 4.54245V4.23054Z" fill="#7C7B7B"/>
<path d="M20.9238 12.7603C20.7775 13.1089 20.5187 13.2333 20.139 13.2328C14.5426 13.225 8.94614 13.2232 3.34968 13.2274C3.27225 13.2274 3.19481 13.2274 3.06897 13.2274C3.14232 13.3042 3.18718 13.3532 3.23415 13.4001C4.0576 14.2225 4.88101 15.0449 5.70437 15.8673C5.96537 16.1289 5.99812 16.469 5.79666 16.7273C5.74261 16.799 5.67367 16.8581 5.59459 16.9006C5.51551 16.9431 5.42816 16.968 5.33855 16.9735C5.24894 16.979 5.15921 16.965 5.07552 16.9325C4.99183 16.9 4.91617 16.8498 4.85375 16.7853C4.51741 16.4598 4.18986 16.1252 3.85853 15.7945C2.98879 14.9265 2.11693 14.0606 1.25169 13.1882C1.12615 13.0616 1.03233 12.9037 0.923828 12.7603V12.4483C1.02775 12.3095 1.11674 12.1558 1.23792 12.0341C2.42127 10.8453 3.61156 9.6634 4.79557 8.47528C4.98034 8.28987 5.18759 8.19441 5.44437 8.25116C5.88284 8.34808 6.07123 8.88497 5.79596 9.24052C5.74621 9.30059 5.69271 9.35746 5.63578 9.41077C4.84002 10.2056 4.04365 10.9999 3.24669 11.7936C3.19238 11.8393 3.13423 11.8804 3.07288 11.9161L3.10823 11.9812H3.33027C8.93321 11.9812 14.5362 11.9794 20.1391 11.9758C20.5188 11.9753 20.7777 12.0995 20.9238 12.4483V12.7603Z" fill="#7C7B7B"/>
</svg>
