<svg width="17" height="16" viewBox="0 0 17 16" fill="none" xmlns="http://www.w3.org/2000/svg">
<path d="M2.56326 7.33359C3.06604 7.34319 3.43785 7.49154 3.75342 7.77828C4.6937 8.63269 5.63332 9.48783 6.57229 10.3437C6.89304 10.6361 7.0513 10.6282 7.34203 10.2997C10.2536 7.00983 13.1649 3.71984 16.0761 0.429672C16.2204 0.266509 16.3831 0.168034 16.6073 0.235251C16.8107 0.296205 16.9359 0.439483 16.9468 0.645634C16.9466 0.762167 16.913 0.87621 16.8501 0.974274C15.8502 2.59441 14.8469 4.21244 13.8401 5.82834C11.9507 8.87181 10.0617 11.9155 8.17311 14.9595C7.84266 15.4924 7.38246 15.8069 6.74535 15.8105C6.5214 15.8151 6.29945 15.7675 6.09704 15.6716C5.89463 15.5756 5.7173 15.4339 5.57907 15.2577C4.15772 13.5217 2.74003 11.7828 1.326 10.0408C0.893028 9.50437 0.83249 8.88948 1.13577 8.26974C1.43649 7.65522 1.95959 7.36111 2.56326 7.33359Z" fill="#6A72E5"/>
</svg>
