<svg width="17" height="17" viewBox="0 0 17 17" fill="none" xmlns="http://www.w3.org/2000/svg">
<path d="M1.89675 7.53477C2.39954 7.54436 2.77135 7.69271 3.08691 7.97945C4.0272 8.83386 4.96682 9.689 5.90578 10.5449C6.22654 10.8372 6.38479 10.8293 6.67553 10.5008C9.58707 7.211 12.4984 3.92101 15.4096 0.630844C15.5539 0.467681 15.7165 0.369206 15.9408 0.436423C16.1442 0.497377 16.2694 0.640655 16.2803 0.846806C16.2801 0.963339 16.2465 1.07738 16.1836 1.17545C15.1837 2.79559 14.1804 4.41361 13.1736 6.02952C11.2842 9.07298 9.39522 12.1167 7.50661 15.1606C7.17616 15.6936 6.71595 16.0081 6.07884 16.0116C5.85489 16.0162 5.63295 15.9687 5.43054 15.8727C5.22813 15.7768 5.0508 15.6351 4.91257 15.4589C3.49122 13.7229 2.07353 11.984 0.659497 10.242C0.226524 9.70554 0.165986 9.09065 0.469265 8.47091C0.769989 7.85639 1.29309 7.56228 1.89675 7.53477Z" fill="#9747FF" fill-opacity="0.7"/>
</svg>
