<svg width="24" height="25" viewBox="0 0 24 25" fill="none" xmlns="http://www.w3.org/2000/svg">
<g clip-path="url(#clip0_6013_183)">
<path d="M16.1231 8.93457C15.705 8.93457 15.3131 9.0977 15.0187 9.39207L10.9687 13.4421L8.98121 11.4564C8.37184 10.8471 7.37996 10.8471 6.77246 11.4564C6.16309 12.0658 6.16309 13.0577 6.77246 13.6652L9.88684 16.7796C10.1756 17.0683 10.56 17.2277 10.9687 17.2277C11.3775 17.2277 11.7618 17.0683 12.0506 16.7796L17.2293 11.6008C17.5237 11.3064 17.6868 10.9127 17.6868 10.4964C17.6868 10.0802 17.5237 9.68645 17.2293 9.39207C16.9331 9.0977 16.5412 8.93457 16.1231 8.93457ZM16.7643 11.1377L11.5856 16.3164C11.4206 16.4814 11.2012 16.5714 10.9687 16.5714C10.7362 16.5714 10.5168 16.4814 10.3518 16.3164L7.23559 13.2021C7.06496 13.0314 6.96934 12.8027 6.96934 12.5608C6.96934 12.3189 7.06309 12.0921 7.23559 11.9196C7.40621 11.7489 7.63496 11.6533 7.87684 11.6533C8.11871 11.6533 8.34559 11.7471 8.51809 11.9196L10.7362 14.1396C10.86 14.2633 11.0775 14.2633 11.1993 14.1396L15.4818 9.85707C15.6525 9.68645 15.8812 9.59082 16.1231 9.59082C16.365 9.59082 16.5918 9.68457 16.7643 9.85707C16.935 10.0277 17.0306 10.2564 17.0306 10.4983C17.0306 10.7402 16.935 10.9671 16.7643 11.1377Z" fill="#385FDD"/>
<path d="M22.7663 14.6852C23.1656 14.1658 23.5781 13.6296 23.5781 12.9771C23.5781 12.3246 23.1656 11.7883 22.7663 11.2689C22.4944 10.9146 22.2375 10.5789 22.1512 10.2564C22.0594 9.91143 22.1156 9.48018 22.1737 9.02268C22.2563 8.38518 22.3406 7.72705 22.0275 7.18518C21.7087 6.6358 21.09 6.37893 20.4919 6.13143C20.0719 5.95705 19.6725 5.79205 19.4288 5.54643C19.185 5.3008 19.0181 4.9033 18.8438 4.4833C18.5963 3.88518 18.3394 3.26643 17.79 2.94768C17.2481 2.63455 16.59 2.71893 15.9525 2.80143C15.495 2.85955 15.0638 2.9158 14.7188 2.82393C14.3962 2.73955 14.0625 2.48268 13.7081 2.2108C13.1888 1.81143 12.6525 1.39893 12 1.39893C11.3475 1.39893 10.8112 1.81143 10.2919 2.2108C9.9375 2.48268 9.60375 2.73955 9.27938 2.8258C8.93438 2.91768 8.50313 2.86143 8.04562 2.8033C7.40812 2.7208 6.75 2.63643 6.20813 2.94955C5.65875 3.2683 5.40188 3.88705 5.15438 4.48518C4.98 4.90518 4.815 5.30455 4.56938 5.5483C4.32375 5.79205 3.92625 5.95893 3.50625 6.1333C2.90813 6.3808 2.28938 6.63768 1.97063 7.18705C1.6575 7.72893 1.74187 8.38705 1.82437 9.02455C1.88437 9.48205 1.93875 9.9133 1.84688 10.2583C1.7625 10.5808 1.50563 10.9146 1.23375 11.2689C0.834375 11.7883 0.421875 12.3246 0.421875 12.9771C0.421875 13.6296 0.834375 14.1658 1.23375 14.6852C1.50563 15.0396 1.7625 15.3752 1.84875 15.6977C1.94062 16.0427 1.88437 16.4739 1.82625 16.9314C1.74375 17.5689 1.65938 18.2271 1.9725 18.7689C2.29125 19.3183 2.91 19.5752 3.50812 19.8227C3.92812 19.9971 4.3275 20.1621 4.57125 20.4077C4.815 20.6533 4.98187 21.0508 5.15625 21.4708C5.40375 22.0689 5.66062 22.6877 6.21 23.0064C6.75187 23.3195 7.41 23.2352 8.0475 23.1527C8.505 23.0946 8.93625 23.0383 9.28125 23.1302C9.60375 23.2164 9.93937 23.4733 10.2938 23.7452C10.8131 24.1446 11.3494 24.5571 12.0019 24.5571C12.6544 24.5571 13.1906 24.1446 13.71 23.7452C14.0644 23.4733 14.4 23.2164 14.7225 23.1302C15.0675 23.0383 15.4987 23.0946 15.9562 23.1527C16.5938 23.2352 17.2519 23.3195 17.7938 23.0064C18.3431 22.6877 18.6 22.0689 18.8475 21.4708C19.0219 21.0508 19.1869 20.6514 19.4325 20.4077C19.6781 20.1639 20.0756 19.9971 20.4956 19.8227C21.0938 19.5752 21.7125 19.3183 22.0312 18.7689C22.3444 18.2271 22.26 17.5689 22.1775 16.9314C22.1194 16.4739 22.0631 16.0427 22.155 15.6977C22.2375 15.3752 22.4944 15.0396 22.7663 14.6852ZM21.5175 15.5271C21.3919 15.9958 21.4594 16.5133 21.5231 17.0139C21.5944 17.5671 21.6619 18.0883 21.4594 18.4389C21.2531 18.7971 20.7619 18.9995 20.2406 19.2152C19.7794 19.4064 19.3013 19.6052 18.9637 19.9427C18.6262 20.2802 18.4294 20.7583 18.2362 21.2196C18.0206 21.7389 17.8162 22.2302 17.46 22.4383C17.1112 22.6408 16.5881 22.5733 16.035 22.5021C15.5344 22.4364 15.0169 22.3708 14.5481 22.4964C14.0981 22.6164 13.695 22.9258 13.305 23.2258C12.8531 23.5727 12.4256 23.9008 11.9963 23.9008C11.5669 23.9008 11.1412 23.5727 10.6875 23.2258C10.2975 22.9258 9.89437 22.6164 9.44438 22.4964C9.25125 22.4439 9.04875 22.4252 8.84437 22.4252C8.55188 22.4252 8.25187 22.4646 7.9575 22.5021C7.40437 22.5733 6.88125 22.6408 6.5325 22.4383C6.17438 22.232 5.97188 21.7408 5.75625 21.2196C5.565 20.7583 5.36625 20.2802 5.02875 19.9427C4.69125 19.6052 4.21312 19.4083 3.75187 19.2152C3.2325 18.9995 2.74125 18.7952 2.53312 18.4389C2.33063 18.0902 2.39813 17.5671 2.46938 17.0139C2.53312 16.5133 2.60063 15.9958 2.475 15.5271C2.355 15.0771 2.04563 14.6739 1.74563 14.2839C1.39875 13.8321 1.07063 13.4046 1.07063 12.9752C1.07063 12.5458 1.39875 12.1202 1.74563 11.6664C2.04563 11.2764 2.355 10.8733 2.475 10.4233C2.60063 9.95455 2.53312 9.43705 2.46938 8.93643C2.39813 8.3833 2.33063 7.86205 2.53312 7.51143C2.73938 7.1533 3.23063 6.9508 3.75187 6.73518C4.21312 6.54393 4.69125 6.34518 5.02875 6.00768C5.36625 5.67018 5.56313 5.19205 5.75625 4.7308C5.97188 4.21143 6.17625 3.72018 6.5325 3.51205C6.88125 3.30955 7.40437 3.37705 7.9575 3.4483C8.45813 3.51205 8.97563 3.57955 9.44438 3.45393C9.89437 3.33393 10.2975 3.02455 10.6875 2.72455C11.1394 2.37768 11.5669 2.04955 11.9963 2.04955C12.4256 2.04955 12.8512 2.37768 13.305 2.72455C13.695 3.02455 14.0981 3.33393 14.5481 3.45393C15.0187 3.57955 15.5344 3.51205 16.035 3.4483C16.5881 3.37705 17.1094 3.30955 17.46 3.51205C17.8181 3.7183 18.0206 4.20955 18.2362 4.7308C18.4275 5.19205 18.6262 5.67018 18.9637 6.00768C19.3013 6.34518 19.7794 6.54205 20.2406 6.73518C20.76 6.9508 21.2512 7.15518 21.4594 7.51143C21.6619 7.86018 21.5944 8.3833 21.5231 8.93643C21.4594 9.43705 21.3919 9.95455 21.5175 10.4233C21.6375 10.8733 21.9469 11.2764 22.2469 11.6664C22.5938 12.1183 22.9219 12.5458 22.9219 12.9752C22.9219 13.4046 22.5938 13.8302 22.2469 14.2839C21.9469 14.6758 21.6375 15.0789 21.5175 15.5271Z" fill="#385FDD"/>
</g>
<defs>
<clipPath id="clip0_6013_183">
<rect width="24" height="24" fill="white" transform="translate(0 0.977051)"/>
</clipPath>
</defs>
</svg>
