<svg width="17" height="17" viewBox="0 0 17 17" fill="none" xmlns="http://www.w3.org/2000/svg">
<g clip-path="url(#clip0_6106_136)">
<path d="M15.6296 9.70801H2.05184C1.02309 9.70801 1.02309 10.8965 2.05184 10.8965H2.13984C2.22459 12.3985 2.63884 13.3835 3.29259 14.0313C3.05184 14.2543 2.83559 14.548 2.69934 14.9165C2.48334 15.5023 2.83234 16.0475 3.32934 16.0475C3.82584 16.0475 4.04884 15.5408 4.04884 14.9165C4.04884 14.8175 4.06959 14.715 4.10034 14.6135C5.31459 15.2428 6.98809 15.2693 8.83809 15.2693C10.6371 15.2693 12.2701 15.244 13.4753 14.664C13.4976 14.749 13.5118 14.8338 13.5118 14.9165C13.5118 15.5408 13.7351 16.0475 14.2318 16.0475C14.7281 16.0475 15.0781 15.5023 14.8618 14.9165C14.7366 14.577 14.5426 14.3025 14.3248 14.0873C15.0126 13.441 15.4491 12.443 15.5366 10.8965H15.6301C16.4971 10.8965 16.4971 9.70801 15.6296 9.70801ZM13.3706 14.1958C12.2928 14.757 10.8121 14.8005 8.83809 14.8005C6.86409 14.8005 5.38334 14.757 4.30559 14.1958C3.62684 13.8423 2.74409 13.1133 2.60984 10.8965H15.0663C14.9321 13.1133 14.0493 13.8423 13.3706 14.1958Z" fill="#4E4E4E"/>
<path d="M8.81561 8.54785C8.81561 8.54785 11.1984 6.3036 9.23511 4.25535C7.98261 2.9496 8.81561 1.04785 8.81561 1.04785C8.81561 1.04785 6.18561 3.56185 7.84636 5.29485C9.76911 7.30035 8.81561 8.54785 8.81561 8.54785Z" fill="#4E4E4E"/>
<path d="M5.16982 8.54776C5.16982 8.54776 6.95657 6.91551 5.48432 5.42601C4.54507 4.47651 5.16982 3.09326 5.16982 3.09326C5.16982 3.09326 3.19707 4.92176 4.44282 6.18201C5.88457 7.64051 5.16982 8.54776 5.16982 8.54776Z" fill="#4E4E4E"/>
<path d="M12.6343 8.54776C12.6343 8.54776 14.4208 6.91501 12.9488 5.42576C12.0093 4.47601 12.6343 3.09326 12.6343 3.09326C12.6343 3.09326 10.6613 4.92176 11.9073 6.18201C13.3488 7.64001 12.6343 8.54776 12.6343 8.54776Z" fill="#4E4E4E"/>
</g>
<defs>
<clipPath id="clip0_6106_136">
<rect width="16" height="16" fill="white" transform="translate(0.780273 0.547852)"/>
</clipPath>
</defs>
</svg>
