<svg width="17" height="13" viewBox="0 0 17 13" fill="none" xmlns="http://www.w3.org/2000/svg">
<path d="M0.799381 10.937C0.218417 10.9472 0.281198 10.7978 0.283136 10.4128C0.284325 10.1764 0.282721 9.93997 0.283546 9.70356C0.284362 9.46967 0.368493 9.38685 0.604449 9.38537C0.662711 9.385 0.720978 9.38532 0.799365 9.38532V9.20359C0.799365 8.6233 0.822214 8.04185 0.792975 7.46303C0.763413 6.87782 1.11447 6.33845 1.83139 6.2756V6.0872C1.83139 4.71168 1.83143 3.33616 1.83152 1.96064C1.83172 1.3036 2.26318 0.872286 2.92041 0.872245C6.49395 0.872012 10.0675 0.872012 13.641 0.872245C14.2977 0.872288 14.7301 1.30416 14.7303 1.96035C14.7308 3.33587 14.7308 4.71139 14.7305 6.08691C14.7305 6.15035 14.7305 6.2138 14.7305 6.27443C15.3103 6.36107 15.6333 6.62928 15.7406 7.11024C15.7568 7.19444 15.7638 7.28012 15.7616 7.36582C15.7632 8.03144 15.7625 8.69706 15.7625 9.3855C15.8544 9.3855 15.9382 9.38232 16.0217 9.38618C16.1763 9.39333 16.2748 9.4856 16.2768 9.63926C16.2813 9.98308 16.2814 10.3269 16.2771 10.6709C16.2752 10.8331 16.1767 10.925 16.0125 10.9313C15.9375 10.9342 15.8623 10.9318 15.7722 10.9318C15.7687 10.9826 15.7631 11.0286 15.7629 11.0747C15.7621 11.3649 15.7644 11.655 15.7616 11.9452C15.76 12.1132 15.6693 12.2165 15.5121 12.2199C15.2489 12.2255 14.9854 12.2248 14.7222 12.22C14.5781 12.2174 14.5003 12.1301 14.4727 11.9924C14.4095 11.6771 14.342 11.3627 14.2836 11.0466C14.2679 10.9617 14.2374 10.9201 14.1487 10.9315C14.1219 10.9333 14.095 10.9335 14.0682 10.932C10.2099 10.932 6.35153 10.9309 2.49321 10.9288C2.35106 10.9287 2.287 10.9551 2.26436 11.1101C2.2218 11.4012 2.15268 11.6886 2.09048 11.9767C2.05066 12.1612 1.97576 12.2202 1.79064 12.2215C1.56495 12.223 1.33924 12.2226 1.11355 12.2216C0.887961 12.2206 0.800447 12.1349 0.799667 11.9125C0.798544 11.5913 0.799381 11.2702 0.799381 10.937ZM2.8635 6.28602C2.8635 5.93077 2.8615 5.58827 2.86395 5.2458C2.86423 4.97684 2.97072 4.71887 3.16026 4.52804C3.34979 4.33721 3.60701 4.22895 3.87597 4.22683C4.91852 4.22371 5.96108 4.22362 7.00365 4.22656C7.23116 4.22596 7.45221 4.30221 7.63096 4.44296C7.80971 4.5837 7.93569 4.78068 7.98849 5.00199C8.01216 5.11733 8.02303 5.23493 8.0209 5.35265C8.02514 5.66197 8.02233 5.97138 8.02233 6.27672H8.53955C8.53955 5.9363 8.53874 5.60872 8.53973 5.28116C8.54156 4.66948 8.98452 4.22672 9.59733 4.2261C10.613 4.22507 11.6287 4.22529 12.6444 4.22676C12.7247 4.22532 12.805 4.23279 12.8837 4.24905C13.3782 4.36234 13.6961 4.76188 13.6982 5.26891C13.6995 5.6054 13.6984 5.94191 13.6984 6.27783H14.2157C14.2157 6.21831 14.2157 6.17042 14.2157 6.12253C14.2157 4.74694 14.2156 3.37135 14.2155 1.99576C14.2154 1.58839 14.0107 1.38701 13.5977 1.38699C10.0509 1.38682 6.50399 1.38683 2.95712 1.38702C2.54762 1.38705 2.34642 1.59008 2.34633 2.00275C2.34603 3.37297 2.34599 4.74319 2.34621 6.11341V6.28602L2.8635 6.28602ZM15.2477 9.38C15.2477 8.72533 15.2478 8.08677 15.2476 7.44821C15.2475 6.99388 15.0571 6.8044 14.6004 6.80439C10.3877 6.80435 6.17494 6.80435 1.96223 6.80439C1.91924 6.80439 1.87618 6.803 1.83329 6.80506C1.54132 6.81913 1.31961 7.02765 1.31701 7.31852C1.31094 7.99535 1.31687 8.67228 1.31874 9.34917C1.31877 9.35776 1.32938 9.36632 1.33844 9.38H15.2477ZM0.805485 10.4058H15.7505V9.90862H0.805485V10.4058ZM7.50533 6.28404C7.50533 5.9202 7.51665 5.57153 7.50173 5.22399C7.49655 5.09277 7.44003 4.96884 7.34436 4.87888C7.24868 4.78892 7.12151 4.74014 6.99022 4.74303C5.95923 4.73797 4.92823 4.73789 3.8972 4.74279C3.63578 4.7439 3.41152 4.91972 3.39382 5.17482C3.36839 5.54116 3.38733 5.91058 3.38733 6.28404H7.50533ZM13.1823 6.28408C13.1823 5.92425 13.1913 5.58097 13.1795 5.23841C13.1769 5.10446 13.1212 4.97703 13.0247 4.88413C12.9281 4.79122 12.7987 4.74045 12.6647 4.74298C11.6337 4.73795 10.6027 4.7379 9.57172 4.74284C9.31559 4.74394 9.09347 4.91119 9.07464 5.16098C9.04667 5.53198 9.0674 5.90665 9.0674 6.28407L13.1823 6.28408ZM1.76707 10.9438H1.32175V11.707C1.38662 11.7137 1.45206 11.7124 1.51661 11.7032C1.56143 11.6912 1.62312 11.6506 1.63228 11.6121C1.68419 11.3938 1.72253 11.1723 1.76707 10.9438ZM14.7921 10.9395C14.8355 11.1525 14.8862 11.3554 14.9153 11.5614C14.9316 11.6768 14.9722 11.7254 15.0884 11.7079C15.1387 11.7004 15.1903 11.7019 15.2394 11.6994V10.9395H14.7921Z" fill="#4E4E4E"/>
</svg>
