<svg width="17" height="17" viewBox="0 0 17 17" fill="none" xmlns="http://www.w3.org/2000/svg">
<path d="M4.37896 6.0311C4.24521 6.09371 4.10589 6.14366 3.96283 6.18031C3.86365 6.19669 3.76187 6.1776 3.67534 6.12642C3.58881 6.07525 3.52308 5.99525 3.48964 5.90044C3.44946 5.80847 3.44046 5.70587 3.46404 5.60831C3.48762 5.51075 3.54251 5.42357 3.62026 5.3601C3.67711 5.31367 3.73702 5.27116 3.79964 5.23285C5.42329 4.14808 7.04708 3.06349 8.67097 1.97907C8.92066 1.77981 9.23048 1.67101 9.54993 1.67041C9.86939 1.66982 10.1796 1.77745 10.4301 1.97577C12.0606 3.06234 13.6904 4.15024 15.3192 5.23945C15.3877 5.28224 15.453 5.32985 15.5148 5.38191C15.6012 5.45735 15.657 5.56179 15.6717 5.67554C15.6864 5.78929 15.659 5.9045 15.5947 5.99944C15.5303 6.09439 15.4335 6.1625 15.3224 6.19097C15.2112 6.21944 15.0936 6.20628 14.9915 6.15398C14.9136 6.11587 14.8411 6.06645 14.7276 5.99941V6.28219C14.7276 7.98915 14.7064 9.69647 14.7359 11.4029C14.7544 11.5911 14.7313 11.781 14.668 11.9592C14.6048 12.1374 14.5029 12.2994 14.3699 12.4337C14.2368 12.5681 14.0757 12.6714 13.8981 12.7363C13.7205 12.8012 13.5308 12.8261 13.3425 12.8092C10.7799 12.7865 8.21709 12.8011 5.65431 12.8002C5.38046 12.8194 5.10843 12.743 4.88462 12.5841C4.6608 12.4251 4.49907 12.1934 4.42706 11.9285C4.39143 11.7709 4.37594 11.6094 4.38091 11.448C4.37782 9.73365 4.37715 8.01935 4.37896 6.30503V6.0311ZM9.55059 11.8417C10.8358 11.8417 12.121 11.8417 13.4063 11.8416C13.7274 11.8415 13.7842 11.7872 13.7843 11.4757C13.7848 9.49626 13.7859 7.51679 13.7876 5.53733C13.7926 5.48042 13.7812 5.42325 13.7546 5.37267C13.728 5.32209 13.6874 5.28022 13.6377 5.25209C12.3892 4.42473 11.1433 3.59354 9.89983 2.75853C9.80185 2.68063 9.68044 2.63813 9.55526 2.63788C9.43009 2.63762 9.3085 2.67965 9.2102 2.75716C7.96786 3.59286 6.72248 4.42399 5.47406 5.2506C5.42385 5.27766 5.38248 5.31863 5.35493 5.36857C5.32739 5.41852 5.31484 5.47533 5.31875 5.53223C5.32358 7.5191 5.3248 9.50596 5.32243 11.4928C5.32253 11.7764 5.38841 11.8413 5.67282 11.8414C6.96538 11.8421 8.25798 11.8421 9.55059 11.8417Z" fill="#4E4E4E"/>
<path d="M1.56296 15.6257C1.38621 15.6257 1.24709 15.6316 1.10867 15.6244C1.04465 15.6264 0.980875 15.6155 0.921168 15.5923C0.861461 15.5691 0.80704 15.5342 0.761112 15.4895C0.715183 15.4449 0.678699 15.3915 0.653832 15.3325C0.628966 15.2734 0.61621 15.21 0.616348 15.146C0.616486 15.0819 0.629516 15.0185 0.654637 14.9596C0.679759 14.9007 0.716486 14.8474 0.762606 14.803C0.808727 14.7586 0.863316 14.7239 0.923123 14.7009C0.982929 14.678 1.04673 14.6673 1.11074 14.6696C1.24914 14.6628 1.38814 14.6684 1.54284 14.6684V2.2096C1.47394 2.26212 1.42159 2.30506 1.36623 2.34371C1.27614 2.40872 1.16588 2.43961 1.05512 2.4309C0.944368 2.4222 0.840313 2.37444 0.761495 2.29614C0.674625 2.21922 0.621701 2.1111 0.614202 1.99531C0.606702 1.87952 0.64526 1.76545 0.721481 1.67796C1.0515 1.32306 1.39384 0.979844 1.74855 0.648323C1.79236 0.607864 1.84411 0.5769 1.90048 0.55741C1.95684 0.53792 2.01661 0.530314 2.07606 0.535065C2.13551 0.539816 2.19333 0.556811 2.24589 0.585006C2.29844 0.6132 2.34458 0.651973 2.38141 0.698877C2.68185 0.990753 2.97685 1.28836 3.27004 1.58758C3.32116 1.62873 3.36319 1.68004 3.39349 1.73825C3.4238 1.79645 3.44172 1.86031 3.44612 1.92578C3.45052 1.99126 3.44131 2.05695 3.41906 2.11869C3.39681 2.18042 3.36203 2.23687 3.31688 2.28449C3.27172 2.33211 3.21717 2.36984 3.15671 2.39534C3.09624 2.42083 3.03114 2.43354 2.96553 2.43263C2.89991 2.43172 2.8352 2.41721 2.77546 2.39005C2.71573 2.36288 2.66228 2.32365 2.61847 2.2748L2.51702 2.18741V14.6546H14.9561C14.8973 14.5838 14.8539 14.5373 14.8169 14.4861C14.7459 14.3952 14.7116 14.281 14.7209 14.1661C14.7301 14.0511 14.7821 13.9438 14.8666 13.8654C14.9467 13.7819 15.056 13.7325 15.1715 13.7276C15.2871 13.7227 15.4002 13.7625 15.4871 13.8389C15.8344 14.1663 16.173 14.5043 16.4986 14.8534C16.5395 14.8992 16.5706 14.9528 16.5901 15.011C16.6095 15.0692 16.6169 15.1308 16.6117 15.192C16.6065 15.2531 16.5889 15.3126 16.5599 15.3667C16.5309 15.4208 16.4912 15.4685 16.4432 15.5067C16.1509 15.8068 15.8549 16.1033 15.5554 16.3962C15.5135 16.4452 15.462 16.4851 15.4041 16.5135C15.3462 16.5419 15.2832 16.5582 15.2188 16.5613C15.1544 16.5645 15.09 16.5544 15.0297 16.5318C14.9693 16.5092 14.9142 16.4745 14.8677 16.4298C14.8203 16.3857 14.7826 16.3323 14.757 16.2729C14.7314 16.2135 14.7184 16.1494 14.7189 16.0847C14.7193 16.02 14.7332 15.9561 14.7597 15.8971C14.7861 15.838 14.8246 15.7851 14.8726 15.7418L14.956 15.6398H2.50188C2.50188 15.7785 2.50427 15.9222 2.50138 16.0657C2.50486 16.1281 2.49579 16.1905 2.4747 16.2493C2.45362 16.3081 2.42094 16.3621 2.37862 16.4081C2.33629 16.454 2.28517 16.491 2.22829 16.5169C2.17142 16.5427 2.10996 16.5569 2.0475 16.5586C1.98488 16.5619 1.92223 16.5523 1.86345 16.5304C1.80468 16.5085 1.75101 16.4748 1.70577 16.4314C1.66053 16.388 1.62467 16.3357 1.60041 16.2779C1.57615 16.2201 1.56401 16.1578 1.56473 16.0951C1.55445 15.9499 1.56296 15.8034 1.56296 15.6257Z" fill="#4E4E4E"/>
</svg>
