<svg width="24" height="22" viewBox="0 0 24 22" fill="none" xmlns="http://www.w3.org/2000/svg">
<path d="M11.1146 0.60902C11.3765 -0.197127 12.517 -0.197126 12.779 0.609021L14.8935 7.117C15.0107 7.47752 15.3466 7.72161 15.7257 7.72161H22.5686C23.4162 7.72161 23.7687 8.80628 23.0829 9.3045L17.5469 13.3267C17.2402 13.5495 17.1119 13.9444 17.229 14.3049L19.3436 20.8129C19.6055 21.6191 18.6829 22.2894 17.9971 21.7912L12.4611 17.769C12.1544 17.5462 11.7391 17.5462 11.4325 17.769L5.89644 21.7912C5.21069 22.2894 4.28803 21.6191 4.54996 20.8129L6.66453 14.3049C6.78167 13.9444 6.65334 13.5495 6.34667 13.3267L0.810646 9.3045C0.124896 8.80628 0.477325 7.72161 1.32496 7.72161H8.16786C8.54693 7.72161 8.88289 7.47752 9.00003 7.117L11.1146 0.60902Z" fill="#6A72E5"/>
</svg>
