<svg width="21" height="21" viewBox="0 0 21 21" fill="none" xmlns="http://www.w3.org/2000/svg">
<path d="M5.46022 2.21402H6.81596C6.82824 2.00661 6.83134 1.80419 6.85367 1.60391C6.93454 0.878516 7.55124 0.372315 8.30569 0.405219C8.981 0.434671 9.55688 1.02469 9.58111 1.71535C9.58667 1.87376 9.58193 2.03254 9.58193 2.2067H10.9557C10.9773 1.95238 10.9701 1.70061 11.0243 1.46287C11.1814 0.774925 11.7747 0.357467 12.487 0.406065C13.1213 0.449345 13.6462 0.977568 13.713 1.64678C13.7314 1.83099 13.7332 2.01684 13.7431 2.20969H15.0998C15.1136 1.99595 15.1161 1.7925 15.1415 1.59194C15.2339 0.86211 15.8469 0.368223 16.6041 0.405199C17.2757 0.437994 17.8466 1.03344 17.8704 1.72587C17.887 2.20831 17.887 2.20831 18.3354 2.34074C19.4536 2.67099 20.2758 3.74544 20.2771 4.91175C20.2816 9.18042 20.2813 13.4491 20.2764 17.7178C20.2741 19.1695 19.049 20.3959 17.5979 20.3978C12.7233 20.4042 7.84862 20.4044 2.97395 20.3982C1.50835 20.3965 0.286322 19.1693 0.284443 17.7013C0.278991 13.4415 0.278885 9.18178 0.284129 4.92201C0.291225 4.30226 0.509858 3.70353 0.9038 3.22503C1.29774 2.74653 1.84334 2.41699 2.4502 2.29102C2.66848 2.24814 2.70378 2.15982 2.69158 1.97652C2.65236 1.38729 2.84973 0.903183 3.36871 0.593042C3.56414 0.475488 3.786 0.408964 4.01387 0.399588C4.24174 0.390211 4.46832 0.438285 4.67275 0.539386C4.87718 0.640487 5.0529 0.791369 5.18376 0.978155C5.31462 1.16494 5.39642 1.38163 5.42162 1.6083C5.4456 1.80144 5.44704 1.99737 5.46022 2.21402ZM1.02889 6.87112V7.18764C1.02889 10.6181 1.02896 14.0486 1.02909 17.479C1.02933 18.81 1.86841 19.6536 3.19387 19.6539C7.91632 19.6546 12.6388 19.6546 17.3612 19.6539C18.6902 19.6537 19.5321 18.8129 19.5324 17.4854C19.5332 14.046 19.5333 10.6067 19.5327 7.16731V6.87112H1.02889ZM1.00656 6.06856H19.5248C19.5248 5.64037 19.5539 5.22951 19.5189 4.82416C19.4382 3.88777 18.7249 3.12064 17.8702 3.03419C17.8702 3.18588 17.8748 3.33612 17.8694 3.48599C17.855 3.82271 17.7165 4.14219 17.4806 4.38288C17.2447 4.62357 16.928 4.76844 16.5917 4.78957C15.8404 4.8215 15.2361 4.3373 15.1437 3.62113C15.1169 3.41282 15.1123 3.20163 15.096 2.97152H14.4136H13.7449C13.7321 3.19761 13.7297 3.39278 13.7087 3.58592C13.629 4.31753 13.0236 4.81886 12.2639 4.78888C11.9228 4.76934 11.6015 4.62235 11.3636 4.37705C11.1258 4.13176 10.9887 3.80605 10.9797 3.4645C10.9756 3.30727 10.9791 3.14984 10.9791 2.99049H9.58177C9.58177 3.16872 9.58685 3.3283 9.5809 3.48747C9.56614 3.8242 9.42718 4.14352 9.19084 4.38382C8.9545 4.62413 8.63753 4.76837 8.3011 4.78873C7.54034 4.82016 6.9339 4.32074 6.85314 3.58969C6.83102 3.38943 6.82737 3.18712 6.81545 2.98929H5.55412C5.4204 3.4309 5.35712 3.86215 5.16273 4.22272C4.94499 4.62661 4.52537 4.79535 4.05332 4.79417C3.72038 4.79625 3.39869 4.67381 3.15139 4.45089C2.71963 4.07402 2.6544 3.56947 2.69163 3.03695C1.93463 3.09807 1.19869 3.78711 1.08566 4.58371C1.01745 5.06443 1.03095 5.55674 1.00656 6.06856ZM4.67572 2.62254C4.67572 2.35602 4.67909 2.08944 4.67493 1.82299C4.66875 1.42818 4.41959 1.15665 4.06702 1.15344C3.72707 1.15034 3.45646 1.431 3.44388 1.81694C3.43404 2.11868 3.44094 2.42099 3.4414 2.72304C3.44176 2.96288 3.42952 3.20382 3.44809 3.44231C3.4767 3.80954 3.7626 4.06077 4.10157 4.04046C4.43681 4.02037 4.66732 3.76462 4.67459 3.39542C4.67967 3.13789 4.67557 2.88017 4.67572 2.62254ZM15.8866 2.6222C15.8866 2.88872 15.8812 3.15537 15.888 3.42171C15.8966 3.75883 16.1195 4.00582 16.4329 4.03927C16.745 4.07257 17.0671 3.87241 17.0858 3.54686C17.1213 2.91839 17.1219 2.28843 17.0877 1.65989C17.0704 1.33815 16.7383 1.12291 16.4401 1.15683C16.2879 1.17064 16.1465 1.24142 16.0442 1.35499C15.9419 1.46857 15.8863 1.61657 15.8885 1.76939C15.8809 2.05347 15.8869 2.33792 15.8866 2.6222ZM12.9616 2.61913C12.9616 2.33498 12.9677 2.05066 12.96 1.76672C12.9614 1.61394 12.9051 1.46623 12.8024 1.35313C12.6997 1.24002 12.558 1.16986 12.4058 1.15666C12.1083 1.12363 11.7773 1.3411 11.7596 1.66155C11.7261 2.28133 11.7248 2.90243 11.7557 3.52235C11.7717 3.84657 12.0843 4.06074 12.3917 4.03984C12.7176 4.01767 12.952 3.76679 12.9607 3.41826C12.9673 3.15204 12.962 2.88552 12.9616 2.61913ZM7.59915 2.57736C7.59915 2.8536 7.59473 3.12992 7.60026 3.40605C7.60733 3.75965 7.83478 4.01219 8.16073 4.03939C8.48076 4.06609 8.79365 3.84392 8.81035 3.50202C8.83985 2.89819 8.83861 2.29078 8.80839 1.68697C8.79207 1.36078 8.47975 1.13574 8.17764 1.15554C8.01995 1.16403 7.87171 1.23341 7.76415 1.34904C7.65659 1.46467 7.59811 1.61754 7.60103 1.77544C7.59414 2.04258 7.59966 2.31004 7.59915 2.57736Z" fill="#6A72E5"/>
<path d="M10.2786 12.2181C10.0293 12.218 9.78003 12.2214 9.53085 12.2173C9.26939 12.2202 9.01737 12.1197 8.82958 11.9378C8.64179 11.7558 8.53341 11.5071 8.528 11.2457C8.51233 10.7299 8.51347 10.2129 8.52743 9.697C8.54247 9.14171 8.94747 8.73723 9.52258 8.71454C10.0292 8.69456 10.5379 8.6935 11.0444 8.71504C11.6399 8.74036 12.0299 9.16073 12.0377 9.75523C12.044 10.2358 12.0457 10.7167 12.0371 11.1973C12.0263 11.7981 11.6004 12.2118 10.9996 12.2177C10.7593 12.2201 10.5189 12.2181 10.2786 12.2181ZM10.2724 9.48C10.0414 9.48 9.81043 9.48368 9.5796 9.47885C9.39339 9.47495 9.29057 9.56041 9.28888 9.74481C9.28451 10.2244 9.28422 10.704 9.288 11.1836C9.28917 11.3646 9.38876 11.4658 9.57043 11.4672C10.0412 11.4706 10.5119 11.4699 10.9827 11.4679C11.1622 11.4672 11.2717 11.3753 11.2736 11.1927C11.2787 10.7132 11.2779 10.2335 11.2743 9.75395C11.273 9.57403 11.1827 9.47581 10.9918 9.47925C10.7521 9.48358 10.5122 9.4803 10.2724 9.48Z" fill="#6A72E5"/>
<path d="M4.77119 12.2184C4.53093 12.2184 4.29065 12.2198 4.0504 12.2181C3.42277 12.2136 3.0108 11.8114 3.0046 11.1904C2.9998 10.7099 2.99977 10.2294 3.00451 9.74886C3.01063 9.14679 3.38867 8.7395 3.99412 8.71488C4.50047 8.69429 5.00909 8.69352 5.51534 8.71544C6.10407 8.74092 6.48132 9.13894 6.49702 9.73211C6.50996 10.2212 6.51008 10.7106 6.49737 11.2002C6.48116 11.8283 6.07105 12.2143 5.43858 12.2182C5.21613 12.2195 4.99365 12.2184 4.77119 12.2184ZM5.74007 10.4835C5.74007 10.2524 5.73521 10.0212 5.7415 9.79031C5.74725 9.57967 5.65821 9.47732 5.44263 9.47903C4.98049 9.48269 4.51833 9.4827 4.05614 9.47905C3.84188 9.47734 3.75058 9.57882 3.75222 9.78867C3.75576 10.2419 3.75575 10.6952 3.7522 11.1485C3.75054 11.3578 3.84935 11.4663 4.05519 11.4678C4.51733 11.4711 4.97949 11.4712 5.44167 11.4681C5.64833 11.467 5.74825 11.3626 5.7416 11.1501C5.73465 10.9281 5.74005 10.7057 5.74007 10.4835Z" fill="#6A72E5"/>
<path d="M10.2842 13.8776C10.5334 13.8777 10.7827 13.8736 11.0318 13.8786C11.5924 13.8898 12.0159 14.2884 12.0334 14.8473C12.0496 15.363 12.0486 15.8799 12.0338 16.3957C12.0183 16.9369 11.6324 17.3418 11.0899 17.3654C10.5481 17.3889 10.0037 17.3892 9.46203 17.3643C8.92203 17.3394 8.53925 16.9284 8.52598 16.3874C8.51354 15.8804 8.51348 15.3731 8.52578 14.8656C8.53942 14.2939 8.96174 13.889 9.53666 13.8783C9.78577 13.8736 10.035 13.8775 10.2842 13.8776ZM10.2867 16.6126C10.5088 16.6126 10.7312 16.6051 10.9528 16.6147C11.1835 16.6247 11.2768 16.5132 11.2763 16.2957C11.2753 15.8427 11.2767 15.3897 11.2753 14.9367C11.2746 14.7335 11.1797 14.6233 10.9663 14.6244C10.5133 14.6269 10.0603 14.6282 9.60734 14.6238C9.3809 14.6216 9.28411 14.7336 9.28442 14.9501C9.28509 15.4031 9.28415 15.8561 9.28506 16.3091C9.28547 16.5132 9.37551 16.6221 9.59399 16.6144C9.82465 16.6063 10.0558 16.6126 10.2867 16.6126Z" fill="#6A72E5"/>
<path d="M3.00749 15.6157C3.00771 15.3488 3.00044 15.0817 3.00927 14.8151C3.01542 14.5679 3.11691 14.3326 3.29251 14.1585C3.46812 13.9844 3.70424 13.8849 3.95149 13.8809C4.48506 13.8704 5.01881 13.8704 5.55273 13.8809C5.79167 13.8809 6.02151 13.9725 6.195 14.1368C6.36849 14.3012 6.47244 14.5257 6.48548 14.7643C6.51125 15.341 6.50956 15.9207 6.4838 16.4975C6.47377 16.7186 6.38246 16.9281 6.22739 17.086C6.07231 17.2438 5.86441 17.3388 5.64358 17.3528C5.04872 17.3835 4.45266 17.3832 3.85783 17.352C3.3731 17.3256 3.02237 16.9084 3.0086 16.4163C3.00114 16.1497 3.00727 15.8826 3.00749 15.6157ZM4.74842 16.6124C4.97961 16.6124 5.21087 16.609 5.44198 16.6134C5.6377 16.6171 5.74314 16.5366 5.74233 16.3317C5.74046 15.8604 5.74052 15.3891 5.74251 14.9178C5.74358 14.7153 5.64004 14.6258 5.44681 14.6255C4.98442 14.6247 4.52203 14.6246 4.05965 14.6253C3.86782 14.6255 3.75659 14.7141 3.75597 14.9136C3.7545 15.3849 3.75532 15.8561 3.75541 16.3274C3.75544 16.527 3.85645 16.617 4.05485 16.6133C4.28597 16.609 4.51722 16.6123 4.74842 16.6124Z" fill="#6A72E5"/>
<path d="M15.8179 13.8783C16.0759 13.8782 16.3341 13.8725 16.5919 13.8794C16.8437 13.88 17.0853 13.9796 17.2646 14.1565C17.4438 14.3335 17.5465 14.5737 17.5504 14.8256C17.561 15.3591 17.5609 15.8929 17.5502 16.4268C17.5513 16.6614 17.4632 16.8876 17.3038 17.0597C17.1445 17.2318 16.9256 17.3369 16.6917 17.3538C16.1056 17.3841 15.5184 17.3847 14.9323 17.3554C14.7068 17.3438 14.4938 17.2483 14.3351 17.0877C14.1764 16.9271 14.0834 16.713 14.0745 16.4874C14.0501 15.9105 14.0484 15.3307 14.0755 14.7541C14.0989 14.2582 14.5156 13.8934 15.0173 13.8797C15.284 13.8724 15.551 13.8784 15.8179 13.8783ZM16.8051 15.6199C16.8051 15.3976 16.8016 15.1752 16.8061 14.953C16.8106 14.7314 16.7085 14.6238 16.4861 14.6246C16.0326 14.6263 15.5791 14.6263 15.1256 14.6248C14.9187 14.6244 14.8148 14.7165 14.817 14.932C14.8217 15.3944 14.8207 15.8568 14.8174 16.3191C14.816 16.5179 14.903 16.6144 15.1052 16.6132C15.5764 16.6104 16.0477 16.6103 16.519 16.613C16.7238 16.6139 16.8061 16.5063 16.8052 16.3134C16.8042 16.0822 16.805 15.851 16.8051 15.6199Z" fill="#6A72E5"/>
<path d="M15.3544 10.9239C15.8973 10.3805 16.3999 9.87722 16.9026 9.37414C16.9529 9.32384 17.0009 9.27061 17.0556 9.22545C17.2323 9.07928 17.4179 9.07165 17.5803 9.23583C17.6183 9.26801 17.6489 9.30807 17.6699 9.35323C17.6909 9.39838 17.7018 9.44756 17.7019 9.49736C17.702 9.54716 17.6913 9.59638 17.6705 9.64163C17.6497 9.68687 17.6193 9.72706 17.5815 9.75941C16.9388 10.4123 16.2909 11.0599 15.6377 11.7024C15.4648 11.8723 15.2614 11.8566 15.0899 11.6904C14.7388 11.3498 14.3912 11.0052 14.0525 10.6525C13.8787 10.4715 13.8876 10.2606 14.0474 10.1062C14.2039 9.955 14.4144 9.95586 14.5938 10.1324C14.8467 10.3813 15.0864 10.6436 15.3544 10.9239Z" fill="#6A72E5"/>
</svg>
