<svg width="25" height="22" viewBox="0 0 25 22" fill="none" xmlns="http://www.w3.org/2000/svg">
<path d="M0.946777 8.63925C1.03409 8.18161 1.09159 7.71585 1.21377 7.26771C1.81627 5.05781 3.15944 3.40476 5.0988 2.22782C6.79415 1.19896 8.65153 0.75715 10.6241 0.873675C13.0167 1.01501 15.1001 1.8989 16.8254 3.5884C16.9335 3.68383 17.0677 3.74474 17.2107 3.76332C20.8092 4.26447 23.8975 6.81507 24.7154 10.2458C25.2501 12.4887 24.8504 14.5772 23.5972 16.5039C23.5447 16.5729 23.5106 16.6542 23.4982 16.7401C23.4858 16.8259 23.4956 16.9135 23.5264 16.9946C23.9501 18.2974 24.3659 19.6029 24.7738 20.9108C24.8313 21.079 24.8448 21.2591 24.8129 21.4339C24.7053 21.8853 24.2274 22.0746 23.7871 21.8544C22.9647 21.443 22.147 21.0221 21.3272 20.6056C20.8409 20.3585 20.3516 20.1175 19.8696 19.8624C19.8072 19.8254 19.7369 19.8038 19.6646 19.7995C19.5922 19.7951 19.5198 19.8081 19.4535 19.8374C16.6829 20.8988 13.963 20.7845 11.3061 19.4547C10.4851 19.0336 9.73471 18.487 9.08209 17.8346C8.97036 17.7323 8.83124 17.6648 8.68175 17.6402C7.91823 17.5282 7.17089 17.3251 6.4557 17.0352C6.38298 17.0017 6.30315 16.9865 6.22319 16.9909C6.14324 16.9954 6.06559 17.0194 5.99705 17.0608C4.71496 17.7197 3.43038 18.3737 2.14331 19.0229C1.67905 19.258 1.20422 19.0992 1.08214 18.6455C1.04298 18.4645 1.0531 18.2763 1.11144 18.1006C1.52148 16.7772 1.94137 15.4569 2.37113 14.1397C2.39744 14.0726 2.40588 13.9999 2.39562 13.9286C2.38537 13.8573 2.35677 13.7899 2.31263 13.733C1.57687 12.6614 1.12233 11.4221 0.990827 10.1289C0.980514 10.0687 0.965791 10.0094 0.946777 9.95139V8.63925ZM22.9551 19.8455C22.6378 18.8529 22.3521 17.9239 22.0413 17.0034C21.9164 16.6337 21.9729 16.3396 22.206 16.0261C23.2415 14.6339 23.6894 13.066 23.4802 11.3396C23.2702 9.60725 22.4599 8.17492 21.1444 7.04388C19.4274 5.56772 17.4159 4.95225 15.1657 5.11496C13.211 5.2563 11.5112 5.99107 10.1079 7.36795C7.70434 9.72632 7.37879 13.2765 9.36486 15.9744C10.8851 18.0396 13.0111 19.01 15.5394 19.1258C16.7915 19.1851 18.0396 18.9422 19.1781 18.4175C19.548 18.2486 19.8696 18.2433 20.2169 18.4505C20.4907 18.6138 20.7834 18.7455 21.0684 18.8901C21.6781 19.1994 22.2882 19.5079 22.9551 19.8455ZM14.6909 3.66531C14.6444 3.63228 14.5779 3.58067 14.5072 3.53544C11.8002 1.80265 8.1177 1.84652 5.467 3.67166C3.61437 4.94729 2.51043 6.69189 2.36845 8.96612C2.27002 10.5427 2.74174 11.9692 3.69025 13.2301C3.91352 13.5269 3.97183 13.8133 3.85063 14.1657C3.62536 14.8206 3.4242 15.4839 3.21404 16.144C3.1254 16.4225 3.03941 16.7018 2.93873 17.0238C3.0737 16.9599 3.16382 16.9198 3.25165 16.8752C4.05059 16.4693 4.85794 16.0789 5.64401 15.6494C6.02555 15.441 6.36363 15.4239 6.74748 15.6233C7.02222 15.766 7.32651 15.8518 7.64931 15.9751C7.63024 15.9131 7.62896 15.9051 7.62549 15.8982C7.59387 15.8357 7.56126 15.7737 7.53006 15.7109C6.54906 13.7384 6.36196 11.6919 7.07619 9.6083C7.99257 6.93492 9.89079 5.20563 12.5068 4.24608C13.2108 3.98783 13.9611 3.8556 14.6909 3.66531Z" fill="#6A72E5"/>
<path d="M12.9471 11.4053C13.0864 11.4061 13.2224 11.4484 13.3376 11.5267C13.4529 11.6051 13.5422 11.7159 13.5942 11.8452C13.6462 11.9745 13.6586 12.1163 13.6297 12.2526C13.6008 12.3889 13.532 12.5136 13.4321 12.6107C13.3321 12.7077 13.2055 12.7729 13.0684 12.7978C12.9313 12.8226 12.7899 12.8062 12.6622 12.7504C12.5345 12.6946 12.4263 12.6021 12.3514 12.4846C12.2764 12.3672 12.2381 12.2301 12.2414 12.0907C12.2443 11.9063 12.3202 11.7306 12.4525 11.6021C12.5848 11.4736 12.7627 11.4029 12.9471 11.4053Z" fill="#6A72E5"/>
<path d="M15.7539 11.4053C15.8932 11.405 16.0295 11.4463 16.1453 11.5238C16.2611 11.6013 16.3513 11.7115 16.4042 11.8404C16.4572 11.9692 16.4706 12.111 16.4427 12.2475C16.4148 12.384 16.347 12.5092 16.2477 12.607C16.1485 12.7048 16.0223 12.7709 15.8854 12.7968C15.7485 12.8226 15.607 12.8072 15.4789 12.7523C15.3508 12.6975 15.2419 12.6058 15.1661 12.4888C15.0903 12.3719 15.051 12.235 15.0533 12.0957C15.055 11.9114 15.1297 11.7352 15.261 11.6058C15.3923 11.4764 15.5695 11.4043 15.7539 11.4053Z" fill="#6A72E5"/>
<path d="M18.5617 11.4053C18.7011 11.4043 18.8376 11.4449 18.9538 11.5218C19.0701 11.5987 19.1608 11.7084 19.2144 11.837C19.268 11.9657 19.2822 12.1074 19.255 12.244C19.2278 12.3807 19.1605 12.5062 19.0618 12.6045C18.963 12.7029 18.8372 12.7696 18.7004 12.7961C18.5636 12.8227 18.4219 12.8079 18.2936 12.7537C18.1652 12.6995 18.0558 12.6083 17.9795 12.4917C17.9031 12.3751 17.8632 12.2384 17.8648 12.0991C17.8656 11.9148 17.9394 11.7383 18.07 11.6083C18.2006 11.4782 18.3774 11.4053 18.5617 11.4053Z" fill="#6A72E5"/>
</svg>
